<svg width="25" height="25" viewBox="0 0 25 25" fill="none" xmlns="http://www.w3.org/2000/svg">
<rect x="0.5" y="0.5" width="24" height="24" rx="12" stroke="white"/>
<path d="M11.286 16V15.311H12.274V11.58H11.299V10.891H13.223V15.311H14.146V16H11.286ZM12.625 9.773C12.4343 9.773 12.2697 9.71233 12.131 9.591C11.9923 9.461 11.923 9.30067 11.923 9.11C11.923 8.91933 11.9923 8.76333 12.131 8.642C12.2697 8.512 12.4343 8.447 12.625 8.447C12.8243 8.447 12.989 8.512 13.119 8.642C13.2577 8.76333 13.327 8.91933 13.327 9.11C13.327 9.30067 13.2577 9.461 13.119 9.591C12.989 9.71233 12.8243 9.773 12.625 9.773Z" fill="white"/>
</svg>
