<svg width="100" height="40" viewBox="0 0 100 40" fill="none" xmlns="http://www.w3.org/2000/svg">
<rect width="10" height="40" rx="2" fill="#4357AD"/>
<rect x="16" width="10" height="40" rx="2" fill="#00A7E1"/>
<rect x="32" width="10" height="40" rx="2" fill="#A31621"/>
<path d="M48.414 39V37.275H49.817V31.571H48.414V29.846H52.439L52.485 31.019L51.703 31.249C52.347 30.7583 52.991 30.3673 53.635 30.076C54.2943 29.7693 54.9767 29.616 55.682 29.616C56.6173 29.616 57.361 29.9073 57.913 30.49C58.4803 31.0573 58.764 31.8163 58.764 32.767V37.275H60.121V39H54.808V37.275H55.981V33.227C55.981 32.7057 55.8507 32.2993 55.59 32.008C55.3447 31.7167 55.0073 31.571 54.578 31.571C54.1487 31.571 53.7117 31.6707 53.267 31.87C52.8223 32.054 52.37 32.3147 51.91 32.652L52.6 31.479V37.275H53.842V39H48.414ZM65.9677 39.253C64.9403 39.253 64.0357 39.0613 63.2537 38.678C62.4717 38.2793 61.8583 37.7197 61.4137 36.999C60.969 36.2783 60.7467 35.4197 60.7467 34.423C60.7467 33.457 60.9613 32.6137 61.3907 31.893C61.82 31.1723 62.4027 30.6127 63.1387 30.214C63.89 29.8153 64.7333 29.616 65.6687 29.616C66.6193 29.616 67.432 29.8153 68.1067 30.214C68.7967 30.6127 69.318 31.1647 69.6707 31.87C70.0387 32.5753 70.2227 33.3957 70.2227 34.331V34.906H62.4947L62.5177 33.595H67.6007C67.6007 33.135 67.5163 32.7517 67.3477 32.445C67.1943 32.123 66.9643 31.8853 66.6577 31.732C66.3663 31.5633 66.0213 31.479 65.6227 31.479C65.1627 31.479 64.764 31.5863 64.4267 31.801C64.1047 32.0157 63.8517 32.33 63.6677 32.744C63.4837 33.1427 63.3917 33.6333 63.3917 34.216C63.3917 34.8447 63.5143 35.3813 63.7597 35.826C64.005 36.2553 64.3347 36.585 64.7487 36.815C65.178 37.045 65.6763 37.16 66.2437 37.16C66.8263 37.16 67.3783 37.0527 67.8997 36.838C68.4363 36.6233 68.904 36.3397 69.3027 35.987L70.1077 37.666C69.6323 38.126 69.042 38.5093 68.3367 38.816C67.6467 39.1073 66.857 39.253 65.9677 39.253ZM75.3059 39C74.3859 39 73.6805 38.7853 73.1899 38.356C72.7145 37.9113 72.4769 37.2213 72.4769 36.286V31.571H71.1889V29.846H72.4539V26.833L75.2599 26.235V29.846H77.4449V31.571H75.2599V35.872C75.2599 36.378 75.3442 36.7307 75.5129 36.93C75.6815 37.1293 75.9729 37.229 76.3869 37.229H77.5599V39H75.3059Z" fill="#FFFFFC"/>
<path d="M55.268 19.23C54.5167 19.23 53.8497 19.092 53.267 18.816C52.6997 18.54 52.186 18.1413 51.726 17.62L52.462 17.965L52.416 19H48.414V17.275H49.771V7.316H48.437V5.614H52.577V11.295L52.002 11.203C52.416 10.7123 52.922 10.329 53.52 10.053C54.1333 9.76167 54.785 9.616 55.475 9.616C56.3183 9.616 57.0543 9.80767 57.683 10.191C58.3117 10.5743 58.8023 11.1187 59.155 11.824C59.523 12.514 59.707 13.342 59.707 14.308C59.707 15.32 59.5077 16.194 59.109 16.93C58.7257 17.666 58.1967 18.2333 57.522 18.632C56.8627 19.0307 56.1113 19.23 55.268 19.23ZM54.371 17.16C55.0763 17.16 55.659 16.9223 56.119 16.447C56.579 15.9563 56.809 15.2893 56.809 14.446C56.809 13.5567 56.5867 12.882 56.142 12.422C55.6973 11.962 55.1223 11.732 54.417 11.732C54.003 11.732 53.5813 11.8393 53.152 12.054C52.738 12.2533 52.3623 12.56 52.025 12.974L52.577 11.893V17.137L52.002 16.033C52.324 16.3857 52.692 16.6617 53.106 16.861C53.52 17.0603 53.9417 17.16 54.371 17.16ZM65.6933 19.253C64.6966 19.253 63.815 19.0537 63.0483 18.655C62.297 18.2563 61.7143 17.6967 61.3003 16.976C60.8863 16.24 60.6793 15.389 60.6793 14.423C60.6793 13.4417 60.8863 12.5983 61.3003 11.893C61.7143 11.1723 62.297 10.6127 63.0483 10.214C63.815 9.81533 64.6966 9.616 65.6933 9.616C66.7053 9.616 67.587 9.81533 68.3383 10.214C69.105 10.6127 69.6953 11.1723 70.1093 11.893C70.5386 12.5983 70.7533 13.434 70.7533 14.4C70.7533 15.366 70.5386 16.217 70.1093 16.953C69.6953 17.6737 69.105 18.241 68.3383 18.655C67.587 19.0537 66.7053 19.253 65.6933 19.253ZM65.6933 17.137C66.184 17.137 66.6056 17.0297 66.9583 16.815C67.3263 16.585 67.61 16.2707 67.8093 15.872C68.0086 15.458 68.1083 14.9673 68.1083 14.4C68.1083 13.848 68.0086 13.3727 67.8093 12.974C67.61 12.5753 67.3263 12.2687 66.9583 12.054C66.6056 11.8393 66.184 11.732 65.6933 11.732C65.218 11.732 64.804 11.8393 64.4513 12.054C64.0986 12.2687 63.8226 12.583 63.6233 12.997C63.424 13.3957 63.3243 13.871 63.3243 14.423C63.3243 14.975 63.424 15.458 63.6233 15.872C63.8226 16.2707 64.0986 16.585 64.4513 16.815C64.804 17.0297 65.218 17.137 65.6933 17.137ZM76.7441 19.253C75.7474 19.253 74.8657 19.0537 74.0991 18.655C73.3477 18.2563 72.7651 17.6967 72.3511 16.976C71.9371 16.24 71.7301 15.389 71.7301 14.423C71.7301 13.4417 71.9371 12.5983 72.3511 11.893C72.7651 11.1723 73.3477 10.6127 74.0991 10.214C74.8657 9.81533 75.7474 9.616 76.7441 9.616C77.7561 9.616 78.6377 9.81533 79.3891 10.214C80.1557 10.6127 80.7461 11.1723 81.1601 11.893C81.5894 12.5983 81.8041 13.434 81.8041 14.4C81.8041 15.366 81.5894 16.217 81.1601 16.953C80.7461 17.6737 80.1557 18.241 79.3891 18.655C78.6377 19.0537 77.7561 19.253 76.7441 19.253ZM76.7441 17.137C77.2347 17.137 77.6564 17.0297 78.0091 16.815C78.3771 16.585 78.6607 16.2707 78.8601 15.872C79.0594 15.458 79.1591 14.9673 79.1591 14.4C79.1591 13.848 79.0594 13.3727 78.8601 12.974C78.6607 12.5753 78.3771 12.2687 78.0091 12.054C77.6564 11.8393 77.2347 11.732 76.7441 11.732C76.2687 11.732 75.8547 11.8393 75.5021 12.054C75.1494 12.2687 74.8734 12.583 74.6741 12.997C74.4747 13.3957 74.3751 13.871 74.3751 14.423C74.3751 14.975 74.4747 15.458 74.6741 15.872C74.8734 16.2707 75.1494 16.585 75.5021 16.815C75.8547 17.0297 76.2687 17.137 76.7441 17.137ZM82.7349 19V17.275H84.1149V7.316H82.7579V5.614H86.8749V14.124L90.2099 11.571H88.8299V9.846H93.9129V11.571H92.8089L89.6349 14.078L92.6939 17.275H93.9819V19H90.9689L86.8749 14.515V17.275H88.1399V19H82.7349Z" fill="#FFFFFC"/>
</svg>
